<?xml version="1.0" encoding="UTF-8" standalone="no"?>
<!-- Created with Inkscape (http://www.inkscape.org/) -->

<svg
   width="210mm"
   height="297mm"
   viewBox="0 0 210 297"
   version="1.1"
   id="svg5"
   inkscape:export-filename="C:\Users\Usuario\Desktop\Pag-Expotronica\static\src\expotronica\logo_expotronica2.png"
   inkscape:export-xdpi="25.365124"
   inkscape:export-ydpi="25.365124"
   inkscape:version="1.1.2 (b8e25be833, 2022-02-05)"
   sodipodi:docname="dibujoLogoVillada.svg"
   xmlns:inkscape="http://www.inkscape.org/namespaces/inkscape"
   xmlns:sodipodi="http://sodipodi.sourceforge.net/DTD/sodipodi-0.dtd"
   xmlns="http://www.w3.org/2000/svg"
   xmlns:svg="http://www.w3.org/2000/svg">
  <sodipodi:namedview
     id="namedview7"
     pagecolor="#ffffff"
     bordercolor="#666666"
     borderopacity="1.0"
     inkscape:pageshadow="2"
     inkscape:pageopacity="0.0"
     inkscape:pagecheckerboard="0"
     inkscape:document-units="mm"
     showgrid="false"
     inkscape:zoom="0.02"
     inkscape:cx="-550"
     inkscape:cy="3450"
     inkscape:window-width="1920"
     inkscape:window-height="1017"
     inkscape:window-x="-8"
     inkscape:window-y="-8"
     inkscape:window-maximized="1"
     inkscape:current-layer="layer1" />
  <defs
     id="defs2" />
  <g
     inkscape:label="Capa 1"
     inkscape:groupmode="layer"
     id="layer1">
    <rect
       style="fill:#1976d2;fill-opacity:1;stroke:#ff001d;stroke-width:0"
       id="rect1917"
       width="2577.0293"
       height="731.25769"
       x="-1450.6547"
       y="-345.74393" />
    <path
       style="fill:#ffffff;fill-opacity:1;stroke:#000000;stroke-width:0.386356px;stroke-linecap:butt;stroke-linejoin:miter;stroke-opacity:1"
       d="m -1440.5469,-12.210641 -1.1071,98.163024 h 304.453 l -0.738,-98.163024 z"
       id="path869-5" />
    <path
       style="fill:#ffffff;fill-opacity:1;stroke:#000000;stroke-width:0.386356px;stroke-linecap:butt;stroke-linejoin:miter;stroke-opacity:1"
       d="m -1441.654,-27.710065 h 95.9489 l 0.369,-108.495975 105.9127,0.73806 -85.6158,-85.24683 -115.5077,-0.73808 z"
       id="path871" />
    <path
       style="fill:#ffffff;fill-opacity:1;stroke:#000000;stroke-width:0.386356px;stroke-linecap:butt;stroke-linejoin:miter;stroke-opacity:1"
       d="m -1442.8506,-233.65339 306.3877,0.39142 -1.1071,-94.47269 -221.4203,-0.73807 z"
       id="path873"
       sodipodi:nodetypes="ccccc" />
    <path
       style="fill:#ffffff;fill-opacity:1;stroke:#000000;stroke-width:0.386356px;stroke-linecap:butt;stroke-linejoin:miter;stroke-opacity:1"
       d="m -1074.3375,86.669495 92.76651,0.1304 -1.04378,-109.72796 98.11583,0.521892 v -90.287447 l -97.33299,-0.52189 -93.15797,87.417039 z"
       id="path1155" />
    <path
       style="fill:#ffffff;fill-opacity:1;stroke:#000000;stroke-width:0.386356px;stroke-linecap:butt;stroke-linejoin:miter;stroke-opacity:1"
       d="m -862.70992,86.930441 h 88.26936 V -29.186201 l -88.19911,-85.431359 z"
       id="path1157" />
    <path
       style="fill:#ffffff;fill-opacity:1;stroke:#000000;stroke-width:0.386356px;stroke-linecap:butt;stroke-linejoin:miter;stroke-opacity:1"
       d="m -982.61477,-125.47992 -90.54843,-90.5484 v -112.9898 h 92.11411 z"
       id="path1159" />
    <path
       style="fill:#ffffff;fill-opacity:1;stroke:#000000;stroke-width:0.386356px;stroke-linecap:butt;stroke-linejoin:miter;stroke-opacity:1"
       d="m -963.75497,-126.61116 h 104.06757 l 86.16942,-86.16942 v -116.43021 h -89.12169 v 111.81728 h -101.01051 z"
       id="path1161" />
    <path
       style="fill:#ffffff;fill-opacity:1;stroke:#000000;stroke-width:0.386356px;stroke-linecap:butt;stroke-linejoin:miter;stroke-opacity:1"
       d="m -708.00853,86.06726 h 87.67746 v -297.81987 h -87.68369 z"
       id="path1163" />
    <path
       style="fill:#ffffff;fill-opacity:1;stroke:#000000;stroke-width:0.386356px;stroke-linecap:butt;stroke-linejoin:miter;stroke-opacity:1"
       d="m -602.24238,-110.52129 v 91.591672 h 100.02614 l 89.68008,-89.680092 v -105.94152 h -91.9438 v 103.94222 z"
       id="path1165" />
    <path
       style="fill:#ffffff;fill-opacity:1;stroke:#000000;stroke-width:0.386356px;stroke-linecap:butt;stroke-linejoin:miter;stroke-opacity:1"
       d="m -708.21299,-233.08133 v -96.32048 l 211.73913,0.91784 86.07147,95.50184 z"
       id="path1167" />
    <path
       style="fill:#ffffff;fill-opacity:1;stroke:#000000;stroke-width:0.386356px;stroke-linecap:butt;stroke-linejoin:miter;stroke-opacity:1"
       d="m -346.07918,-205.73792 h 84.02896 V 0.85399318 H -61.45621 L -146.69416,86.091924 h -199.11406 z"
       id="path1169" />
    <path
       style="fill:#ffffff;fill-opacity:1;stroke:#000000;stroke-width:0.386356px;stroke-linecap:butt;stroke-linejoin:miter;stroke-opacity:1"
       d="m -144.87717,-23.611347 h 82.296863 V -328.00025 H -269.23403 l -78.10038,101.24133 h 200.93407 z"
       id="path1171" />
    <path
       style="fill:#ffffff;fill-opacity:1;stroke:#000000;stroke-width:0.386356px;stroke-linecap:butt;stroke-linejoin:miter;stroke-opacity:1"
       d="m -1422.4583,192.70362 c -14.7563,-6.20356 -13.7245,-25.5143 -0.06,-32.8792 h 133.6076 c 13.0504,3.99461 14.5832,29.74445 0,32.89859 h -50.043 v 173.61982 c -4.1285,13.07898 -26.4283,14.15989 -32.3091,0 V 193.13096 Z"
       id="path1173"
       sodipodi:nodetypes="ccccccccc" />
    <path
       style="fill:#ffffff;fill-opacity:1;stroke:#000000;stroke-width:0.386356px;stroke-linecap:butt;stroke-linejoin:miter;stroke-opacity:1"
       d="m -1234.8594,366.99612 c 7.3007,14.93182 24.6933,14.5966 33.0278,0 v -66.29965 h 16.4862 l 74.3451,74.34519 c 20.7367,8.23316 27.2352,-11.57655 21.5554,-21.55537 l -53.1812,-53.18124 49.8702,-21.21206 V 183.8747 c -18.7411,-13.28476 -38.4538,-23.71265 -61.6599,-23.86817 h -80.4466 z"
       id="path1911"
       sodipodi:nodetypes="cccccccccccc" />
    <path
       style="fill:#1976d2;stroke:#000000;stroke-width:0.386356px;stroke-linecap:butt;stroke-linejoin:miter;stroke-opacity:1;fill-opacity:1"
       d="m -1204.035,272.81003 v -81.03082 h 54.6594 c 8.3705,1.2624 16.3013,4.33391 22.1942,9.52264 v 58.19166 c -5.8501,8.82784 -12.7454,10.65397 -30.0098,13.36214 z"
       id="path1913"
       sodipodi:nodetypes="ccccccc" />
    <path
       style="fill:#ffffff;fill-opacity:1;stroke:#000000;stroke-width:0.386356px;stroke-linecap:butt;stroke-linejoin:miter;stroke-opacity:1"
       d="M -1025.4597,351.8554 V 183.75871 c 51.91278,-41.8635 116.71913,-28.91881 146.38691,0 v 168.38183 c -46.33057,36.86262 -104.90877,34.34892 -146.38691,-0.28514 z"
       id="path3153"
       sodipodi:nodetypes="ccccc" />
    <path
       style="fill:#1976d2;stroke:#000000;stroke-width:0.386356px;stroke-linecap:butt;stroke-linejoin:miter;stroke-opacity:1;fill-opacity:1"
       d="m -992.46065,335.55811 c 28.08721,13.69004 59.5449,12.81345 81.37154,-0.33193 V 200.71387 c -22.66411,-12.57686 -48.68172,-14.8931 -80.32393,0 z"
       id="path3359"
       sodipodi:nodetypes="ccccc" />
    <path
       style="fill:#ffffff;fill-opacity:1;stroke:#000000;stroke-width:0.386356px;stroke-linecap:butt;stroke-linejoin:miter;stroke-opacity:1"
       d="m -807.03222,365.73255 0.55806,-194.01535 c 1.86935,-15.84292 32.17247,-13.11751 37.40688,-10.38341 l 75.52308,156.15624 0.46906,-149.26084 c 7.74072,-15.62907 22.92048,-14.74063 32.35824,-0.10266 l -0.18199,197.27694 c -2.80307,13.0706 -25.5456,11.75753 -37.87889,8.42607 l -74.66986,-152.2378 -0.44861,145.08574 c -3.71811,10.63561 -22.19407,20.51691 -33.13597,-0.94493 z"
       id="path3489"
       sodipodi:nodetypes="ccccccccccc" />
    <path
       style="fill:#ffffff;fill-opacity:1;stroke:#000000;stroke-width:0.386356px;stroke-linecap:butt;stroke-linejoin:miter;stroke-opacity:1"
       d="m -590.48887,374.88102 97.31908,-0.007 c 15.65253,-7.39747 14.28104,-25.02724 0,-32.1384 h -33.22462 V 192.53724 h 31.77714 c 15.97922,-4.56829 11.74948,-29.41317 0,-33.51492 h -96.13493 c -12.36987,4.50783 -14.00035,27.69112 0,33.18566 h 30.37722 v 149.68513 l -31.00707,0.007 c -15.77985,5.50983 -17.36505,26.99893 0.89318,32.98026 z"
       id="path3961"
       sodipodi:nodetypes="cccccccccccccc" />
    <path
       style="fill:#ffffff;fill-opacity:1;stroke:#000000;stroke-width:0.386356px;stroke-linecap:butt;stroke-linejoin:miter;stroke-opacity:1"
       d="m -425.92478,182.30856 -0.83383,170.49163 c 43.42276,32.66973 98.46476,33.47358 147.99166,0 v -41.72368 c -6.64874,-13.21537 -25.95255,-15.98653 -33.75219,0 v 23.09545 c -24.33846,13.59553 -54.52028,14.66684 -81.67283,0 V 201.29329 c 28.50559,-15.21406 56.91315,-14.70934 82.19804,0 v 22.1644 c 9.4116,14.02576 22.88761,13.87858 30.90283,0 v -40.79622 c -40.12996,-32.29979 -97.33058,-35.62627 -144.83368,-0.35291 z"
       id="path4703"
       sodipodi:nodetypes="ccccccccccccc" />
    <path
       style="fill:#ffffff;fill-opacity:1;stroke:#000000;stroke-width:0.386356px;stroke-linecap:butt;stroke-linejoin:miter;stroke-opacity:1"
       d="m -183.62656,312.93827 h 68.62423 l 16.180379,54.17036 c 10.834876,19.17191 34.409518,10.89711 31.103288,-10.28587 L -124.20604,168.40189 c -1.21737,-11.8437 -43.63577,-14.82925 -50.36332,0.0146 l -55.46367,189.1781 c -4.98503,20.88082 19.70512,29.66589 30.73387,11.89304 z"
       id="path5403"
       sodipodi:nodetypes="ccccccccc" />
    <path
       style="fill:#1976d2;stroke:#000000;stroke-width:0.386356px;stroke-linecap:butt;stroke-linejoin:miter;stroke-opacity:1;fill-opacity:1"
       d="m -175.00681,284.53693 52.18802,0.38571 -25.40522,-87.67282 z"
       id="path5761" />
    <g
       id="g1893"
       transform="matrix(1.3837768,0,0,1.3837768,47.325824,-93.096706)">
      <circle
         style="fill:#ffffff;fill-opacity:1;stroke:#ff001d;stroke-width:0"
         id="path1026"
         cx="514.79456"
         cy="82.635765"
         r="261.59372" />
      <path
         style="fill:#28146d;fill-opacity:1;stroke:#000000;stroke-width:0.790331px;stroke-linecap:butt;stroke-linejoin:miter;stroke-opacity:1"
         d="m 350.85918,122.42425 1.33449,9.07446 c -71.99665,113.62405 85.43689,82.03087 142.07162,53.8089 l 1.15593,2.52421 c -41.63635,16.06603 -97.08503,44.26012 -157.63996,43.3527 -10.86916,-1.36581 -38.14787,-3.83404 -27.22344,-43.50412 7.40166,-26.40958 24.78462,-44.93287 40.30136,-65.25615 z"
         id="path869"
         sodipodi:nodetypes="ccccccc"
         inkscape:export-filename="C:\Users\Usuario\Desktop\Pag-Expotronica\static\src\expotronica\imagem_logo_villada2.png"
         inkscape:export-xdpi="25.365124"
         inkscape:export-ydpi="25.365124" />
      <path
         style="fill:#d9241d;fill-opacity:1;stroke:#000000;stroke-width:0.790331px;stroke-linecap:butt;stroke-linejoin:miter;stroke-opacity:1"
         d="m 368.66927,140.2025 11.22909,-0.18878 2.73651,21.42022 12.36144,-21.2315 11.13473,-0.37745 -19.62732,29.53536 -11.88963,-0.28318 z"
         id="path1417"
         inkscape:export-filename="C:\Users\Usuario\Desktop\Pag-Expotronica\static\src\expotronica\imagem_logo_villada2.png"
         inkscape:export-xdpi="25.365124"
         inkscape:export-ydpi="25.365124" />
      <path
         style="fill:#d9241d;fill-opacity:1;stroke:#000000;stroke-width:0.790331px;stroke-linecap:butt;stroke-linejoin:miter;stroke-opacity:1"
         d="m 409.81117,140.2025 10.75728,-0.18878 -6.88844,29.15791 h -11.32346 z"
         id="path1419"
         inkscape:export-filename="C:\Users\Usuario\Desktop\Pag-Expotronica\static\src\expotronica\imagem_logo_villada2.png"
         inkscape:export-xdpi="25.365124"
         inkscape:export-ydpi="25.365124" />
      <path
         style="fill:#d9241d;fill-opacity:1;stroke:#000000;stroke-width:0.790331px;stroke-linecap:butt;stroke-linejoin:miter;stroke-opacity:1"
         d="m 438.59162,140.10814 -5.09555,21.42023 16.32465,0.28317 -1.60416,7.26587 -27.45938,-0.18878 7.26588,-28.96919 z"
         id="path1423"
         inkscape:export-filename="C:\Users\Usuario\Desktop\Pag-Expotronica\static\src\expotronica\imagem_logo_villada2.png"
         inkscape:export-xdpi="25.365124"
         inkscape:export-ydpi="25.365124" />
      <path
         style="fill:#d9241d;fill-opacity:1;stroke:#000000;stroke-width:0.790331px;stroke-linecap:butt;stroke-linejoin:miter;stroke-opacity:1"
         d="m 470.49381,140.25131 -5.09555,21.42023 16.32465,0.28317 -1.60415,7.26587 -27.45938,-0.18878 7.26588,-28.96918 z"
         id="path1423-6"
         inkscape:export-filename="C:\Users\Usuario\Desktop\Pag-Expotronica\static\src\expotronica\imagem_logo_villada2.png"
         inkscape:export-xdpi="25.365124"
         inkscape:export-ydpi="25.365124" />
      <path
         style="fill:#d9241d;fill-opacity:1;stroke:#000000;stroke-width:0.790331px;stroke-linecap:butt;stroke-linejoin:miter;stroke-opacity:1"
         d="m 492.37804,169.17169 2.45342,-4.81247 h 12.64453 v 4.81247 l 11.51218,-0.0944 -6.03918,-28.87482 -11.88963,-0.0944 -19.53768,28.99795 z m 3.80627,2.36149 z"
         id="path1560"
         sodipodi:nodetypes="ccccccccc"
         inkscape:export-filename="C:\Users\Usuario\Desktop\Pag-Expotronica\static\src\expotronica\imagem_logo_villada2.png"
         inkscape:export-xdpi="25.365124"
         inkscape:export-ydpi="25.365124" />
      <path
         style="fill:#d9241d;fill-opacity:1;stroke:#000000;stroke-width:0.790331px;stroke-linecap:butt;stroke-linejoin:miter;stroke-opacity:1"
         d="m 522.3852,169.17169 18.77807,-0.0944 c 19.52901,-3.57891 21.91598,-27.34475 6.41663,-28.87482 l -18.58935,-0.18878 z"
         id="path1562"
         sodipodi:nodetypes="ccccc"
         inkscape:export-filename="C:\Users\Usuario\Desktop\Pag-Expotronica\static\src\expotronica\imagem_logo_villada2.png"
         inkscape:export-xdpi="25.365124"
         inkscape:export-ydpi="25.365124" />
      <path
         style="fill:#fffffd;fill-opacity:1;stroke:#000000;stroke-width:0.790331px;stroke-linecap:butt;stroke-linejoin:miter;stroke-opacity:1"
         d="m 534.69946,162.28326 7.9736,-0.14159 c 5.30493,-4.5475 5.22834,-11.79892 2.64215,-15.14511 l -6.93562,-0.23598 z"
         id="path1730"
         sodipodi:nodetypes="ccccc"
         inkscape:export-filename="C:\Users\Usuario\Desktop\Pag-Expotronica\static\src\expotronica\imagem_logo_villada2.png"
         inkscape:export-xdpi="25.365124"
         inkscape:export-ydpi="25.365124" />
      <path
         style="fill:#ffffff;fill-opacity:1;stroke:#000000;stroke-width:0.790331px;stroke-linecap:butt;stroke-linejoin:miter;stroke-opacity:1"
         d="m 499.03057,157.94258 h 7.36025 l -1.22671,-9.71928 z"
         id="path2298"
         inkscape:export-filename="C:\Users\Usuario\Desktop\Pag-Expotronica\static\src\expotronica\imagem_logo_villada2.png"
         inkscape:export-xdpi="25.365124"
         inkscape:export-ydpi="25.365124" />
      <path
         style="fill:#d9241d;fill-opacity:1;stroke:#000000;stroke-width:0.790331px;stroke-linecap:butt;stroke-linejoin:miter;stroke-opacity:1"
         d="m 564.45863,169.32176 2.45341,-4.81246 h 12.64453 v 4.81246 l 11.51219,-0.0944 -6.03916,-28.87482 -11.88964,-0.0944 -19.53768,28.99795 z m 3.80626,2.36149 z"
         id="path1560-5"
         sodipodi:nodetypes="ccccccccc"
         inkscape:export-filename="C:\Users\Usuario\Desktop\Pag-Expotronica\static\src\expotronica\imagem_logo_villada2.png"
         inkscape:export-xdpi="25.365124"
         inkscape:export-ydpi="25.365124" />
      <path
         style="fill:#ffffff;fill-opacity:1;stroke:#000000;stroke-width:0.790331px;stroke-linecap:butt;stroke-linejoin:miter;stroke-opacity:1"
         d="m 571.11116,158.09265 h 7.36027 l -1.22671,-9.71928 z"
         id="path2298-1"
         inkscape:export-filename="C:\Users\Usuario\Desktop\Pag-Expotronica\static\src\expotronica\imagem_logo_villada2.png"
         inkscape:export-xdpi="25.365124"
         inkscape:export-ydpi="25.365124" />
      <path
         style="fill:#28146d;fill-opacity:1;stroke:#000000;stroke-width:0.790331px;stroke-linecap:butt;stroke-linejoin:miter;stroke-opacity:1"
         d="M 379.81745,127.49527 H 415.1145 L 433.86398,24.606706 h -34.76326 z"
         id="path2457"
         inkscape:export-filename="C:\Users\Usuario\Desktop\Pag-Expotronica\static\src\expotronica\imagem_logo_villada2.png"
         inkscape:export-xdpi="25.365124"
         inkscape:export-ydpi="25.365124" />
      <path
         style="fill:#28146d;fill-opacity:1;stroke:#000000;stroke-width:0.790331px;stroke-linecap:butt;stroke-linejoin:miter;stroke-opacity:1"
         d="m 465.49121,127.36184 31.49378,0.26704 13.74517,-72.462397 48.04136,0.200134 7.40638,-29.091714 -124.64064,-0.200135 -9.20793,29.291879 47.97464,0.200135 z"
         id="path2459"
         inkscape:export-filename="C:\Users\Usuario\Desktop\Pag-Expotronica\static\src\expotronica\imagem_logo_villada2.png"
         inkscape:export-xdpi="25.365124"
         inkscape:export-ydpi="25.365124" />
      <path
         style="fill:#28146d;fill-opacity:1;stroke:#000000;stroke-width:0.790331px;stroke-linecap:butt;stroke-linejoin:miter;stroke-opacity:1"
         d="m 549.43013,127.62873 4.87086,-27.3569 77.80032,0.33363 c 5.41765,0.17803 4.70511,-10.625295 -0.26674,-12.010346 L 578.24041,88.389901 C 543.16566,74.24149 570.75884,28.365831 589.85227,26.943263 l 78.50839,-0.67998 -6.84616,29.167855 -76.14874,-0.2542 c -5.41606,2.005468 -4.95542,9.93955 0.0487,10.642411 l 56.58176,-0.168771 c 36.0693,8.467546 15.0506,57.839072 -6.9168,61.482962 z"
         id="path2461"
         sodipodi:nodetypes="ccccccccccccc"
         inkscape:export-filename="C:\Users\Usuario\Desktop\Pag-Expotronica\static\src\expotronica\imagem_logo_villada2.png"
         inkscape:export-xdpi="25.365124"
         inkscape:export-ydpi="25.365124" />
      <path
         style="fill:#28146d;fill-opacity:1;stroke:#000000;stroke-width:0.790331px;stroke-linecap:butt;stroke-linejoin:miter;stroke-opacity:1"
         d="m 470.73506,4.9407635 -2.6461,-2.732673 c 78.40445,-55.9496875 194.99537,-112.3549505 237.2025,-81.7784435 20.3582,22.357257 -16.95379,74.4674665 -28.01487,87.6067205 l -11.47733,-0.517153 c 31.97539,-46.9794455 15.84493,-76.9804875 -20.31363,-73.4147135 -65.3081,3.950713 -125.13891,38.806424 -174.75057,70.8362625 z"
         id="path3465"
         sodipodi:nodetypes="ccccccc"
         inkscape:export-filename="C:\Users\Usuario\Desktop\Pag-Expotronica\static\src\expotronica\imagem_logo_villada2.png"
         inkscape:export-xdpi="25.365124"
         inkscape:export-ydpi="25.365124" />
    </g>
  </g>
</svg>
